<?xml version="1.0" standalone="no"?>
<!DOCTYPE svg PUBLIC "-//W3C//DTD SVG 20010904//EN"
 "http://www.w3.org/TR/2001/REC-SVG-20010904/DTD/svg10.dtd">
<svg version="1.0" xmlns="http://www.w3.org/2000/svg"
 width="1000.000000pt" height="1000.000000pt" viewBox="0 0 1000.000000 1000.000000"
 preserveAspectRatio="xMidYMid meet">

<g transform="translate(0.000000,1000.000000) scale(0.100000,-0.100000)"
fill="#000000" stroke="none">

<path d="M3310 8364 c-739 -49 -1297 -240 -1844 -628 -237 -169 -555 -470
-739 -701 -386 -483 -618 -1046 -682 -1657 -19 -190 -20 -558 0 -743 37 -350
124 -676 262 -982 309 -686 926 -1316 1628 -1662 448 -222 912 -332 1455 -348
524 -15 1016 73 1476 263 l130 54 103 -45 c296 -131 647 -221 1013 -261 185
-21 597 -23 773 -5 724 75 1333 330 1878 787 151 126 404 383 520 529 386 483
618 1046 682 1657 19 190 20 558 0 743 -37 350 -124 676 -262 982 -309 686
-926 1316 -1628 1662 -448 222 -912 332 -1455 348 -524 15 -1016 -73 -1476
-263 l-130 -54 -103 45 c-295 130 -653 223 -1003 260 -144 15 -494 26 -598 19z
m350 -1054 c150 -10 300 -29 300 -37 0 -3 -30 -37 -66 -76 -208 -225 -384
-483 -524 -769 -200 -407 -303 -832 -317 -1303 -4 -159 -3 -201 12 -255 37
-143 134 -266 264 -334 130 -68 82 -66 1348 -66 l1141 0 -15 -67 c-72 -327
-249 -642 -517 -921 -114 -119 -274 -262 -292 -262 -7 0 -78 62 -157 139 -79
76 -164 150 -189 165 -151 88 -364 99 -511 25 -23 -12 -74 -45 -113 -74 -133
-100 -200 -238 -198 -415 1 -110 22 -179 85 -271 l38 -57 -97 -13 c-151 -22
-617 -19 -757 4 -405 67 -745 212 -1059 451 -514 391 -827 922 -907 1536 -16
120 -16 478 0 590 74 525 280 939 654 1312 433 433 966 671 1572 701 130 7
165 6 305 -3z m3187 -25 c600 -79 1112 -356 1509 -818 288 -334 457 -706 520
-1142 21 -144 24 -495 5 -625 -74 -525 -281 -939 -654 -1312 -308 -308 -686
-528 -1078 -628 -236 -61 -536 -87 -791 -70 -150 10 -298 27 -307 36 -2 2 27
36 64 76 209 226 384 483 524 768 201 408 304 835 318 1305 4 159 3 201 -12
255 -37 143 -134 266 -264 334 -130 68 -82 66 -1348 66 l-1141 0 15 68 c72
326 249 641 517 920 114 119 274 262 292 262 7 0 78 -62 157 -139 79 -76 164
-150 189 -165 151 -88 364 -99 511 -25 23 12 74 45 113 74 133 100 200 238
198 415 -1 110 -22 179 -85 273 -32 47 -36 57 -22 58 10 0 61 6 113 13 136 20
510 20 657 1z"/>
</g>
</svg>
